<svg width="35" height="34" viewBox="0 0 35 34" fill="none" xmlns="http://www.w3.org/2000/svg">
<g clip-path="url(#clip0_998_70)">
<path d="M32.1386 34.0001C33.1748 34.0001 34.0151 33.16 34.0151 32.1236V1.87651C34.0151 0.840039 33.1748 0 32.1386 0H1.89164C0.855043 0 0.0151367 0.840039 0.0151367 1.87651V32.1236C0.0151367 33.16 0.855043 34.0001 1.89164 34.0001H32.1386Z" fill="#395185"/>
<path d="M20.0722 32.2999V20.2959H24.4918L25.1535 15.6178H20.0722V12.6309C20.0722 11.2765 20.4849 10.3535 22.6153 10.3535L25.3326 10.3524V6.1683C24.8624 6.11127 23.2495 5.98389 21.3731 5.98389C17.4554 5.98389 14.7734 8.16401 14.7734 12.1678V15.6178H10.3425V20.2959H14.7734V32.2999H20.0722Z" fill="white"/>
</g>
<defs>
<clipPath id="clip0_998_70">
<rect x="0.0151367" width="34" height="34" rx="17" fill="white"/>
</clipPath>
</defs>
</svg>
