<svg width="46" height="49" viewBox="0 0 46 49" fill="none" xmlns="http://www.w3.org/2000/svg">
<path d="M29.8211 21.8303C29.3277 21.8303 28.8546 21.612 28.5057 21.2235C28.1568 20.835 27.9608 20.3081 27.9608 19.7586C27.9608 19.2092 28.1568 18.6822 28.5057 18.2937C28.8546 17.9052 29.3277 17.6869 29.8211 17.6869C30.3145 17.6869 30.7877 17.9052 31.1365 18.2937C31.4854 18.6822 31.6814 19.2092 31.6814 19.7586C31.6814 20.3081 31.4854 20.835 31.1365 21.2235C30.7877 21.612 30.3145 21.8303 29.8211 21.8303ZM29.8211 30.1171C29.3277 30.1171 28.8546 29.8988 28.5057 29.5103C28.1568 29.1218 27.9608 28.5948 27.9608 28.0454C27.9608 27.4959 28.1568 26.969 28.5057 26.5805C28.8546 26.192 29.3277 25.9737 29.8211 25.9737C30.3145 25.9737 30.7877 26.192 31.1365 26.5805C31.4854 26.969 31.6814 27.4959 31.6814 28.0454C31.6814 28.5948 31.4854 29.1218 31.1365 29.5103C30.7877 29.8988 30.3145 30.1171 29.8211 30.1171ZM27.9608 36.3321C27.9608 36.8816 28.1568 37.4085 28.5057 37.797C28.8546 38.1856 29.3277 38.4038 29.8211 38.4038C30.3145 38.4038 30.7877 38.1856 31.1365 37.797C31.4854 37.4085 31.6814 36.8816 31.6814 36.3321C31.6814 35.7827 31.4854 35.2558 31.1365 34.8672C30.7877 34.4787 30.3145 34.2605 29.8211 34.2605C29.3277 34.2605 28.8546 34.4787 28.5057 34.8672C28.1568 35.2558 27.9608 35.7827 27.9608 36.3321ZM25.4804 19.7586C25.4804 19.3923 25.3498 19.041 25.1172 18.782C24.8846 18.523 24.5691 18.3775 24.2402 18.3775H15.5589C15.2299 18.3775 14.9145 18.523 14.6819 18.782C14.4493 19.041 14.3187 19.3923 14.3187 19.7586C14.3187 20.1249 14.4493 20.4762 14.6819 20.7352C14.9145 20.9942 15.2299 21.1397 15.5589 21.1397H24.2402C24.5691 21.1397 24.8846 20.9942 25.1172 20.7352C25.3498 20.4762 25.4804 20.1249 25.4804 19.7586ZM25.4804 28.0454C25.4804 27.6791 25.3498 27.3278 25.1172 27.0688C24.8846 26.8098 24.5691 26.6642 24.2402 26.6642H15.5589C15.2299 26.6642 14.9145 26.8098 14.6819 27.0688C14.4493 27.3278 14.3187 27.6791 14.3187 28.0454C14.3187 28.4117 14.4493 28.763 14.6819 29.022C14.9145 29.281 15.2299 29.4265 15.5589 29.4265H24.2402C24.5691 29.4265 24.8846 29.281 25.1172 29.022C25.3498 28.763 25.4804 28.4117 25.4804 28.0454ZM25.4804 36.3321C25.4804 35.9658 25.3498 35.6145 25.1172 35.3555C24.8846 35.0965 24.5691 34.951 24.2402 34.951H15.5589C15.2299 34.951 14.9145 35.0965 14.6819 35.3555C14.4493 35.6145 14.3187 35.9658 14.3187 36.3321C14.3187 36.6984 14.4493 37.0497 14.6819 37.3087C14.9145 37.5678 15.2299 37.7133 15.5589 37.7133H24.2402C24.5691 37.7133 24.8846 37.5678 25.1172 37.3087C25.3498 37.0497 25.4804 36.6984 25.4804 36.3321ZM19.2794 1.80396C18.5097 1.80351 17.7588 2.06893 17.1302 2.56365C16.5016 3.05837 16.0263 3.75804 15.7697 4.56621H11.8383C10.8515 4.56621 9.90516 5.00274 9.20741 5.77978C8.50966 6.55681 8.11768 7.6107 8.11768 8.70959V41.8567C8.11768 42.9555 8.50966 44.0094 9.20741 44.7865C9.90516 45.5635 10.8515 46 11.8383 46H34.1618C35.1486 46 36.0949 45.5635 36.7926 44.7865C37.4904 44.0094 37.8824 42.9555 37.8824 41.8567V8.70959C37.8824 7.6107 37.4904 6.55681 36.7926 5.77978C36.0949 5.00274 35.1486 4.56621 34.1618 4.56621H30.2304C29.9738 3.75804 29.4985 3.05837 28.8699 2.56365C28.2413 2.06893 27.4903 1.80351 26.7206 1.80396H19.2794ZM18.0392 5.94734C18.0392 5.58104 18.1699 5.22975 18.4025 4.97073C18.6351 4.71172 18.9505 4.56621 19.2794 4.56621H26.7206C27.0495 4.56621 27.365 4.71172 27.5976 4.97073C27.8302 5.22975 27.9608 5.58104 27.9608 5.94734C27.9608 6.31364 27.8302 6.66493 27.5976 6.92394C27.365 7.18295 27.0495 7.32847 26.7206 7.32847H19.2794C18.9505 7.32847 18.6351 7.18295 18.4025 6.92394C18.1699 6.66493 18.0392 6.31364 18.0392 5.94734ZM11.8383 7.32847H15.7697C16.0263 8.13664 16.5016 8.8363 17.1302 9.33102C17.7588 9.82574 18.5097 10.0912 19.2794 10.0907H26.7206C27.4903 10.0912 28.2413 9.82574 28.8699 9.33102C29.4985 8.8363 29.9738 8.13664 30.2304 7.32847H34.1618C34.4907 7.32847 34.8062 7.47398 35.0387 7.73299C35.2713 7.992 35.402 8.3433 35.402 8.70959V41.8567C35.402 42.2229 35.2713 42.5742 35.0387 42.8333C34.8062 43.0923 34.4907 43.2378 34.1618 43.2378H11.8383C11.5093 43.2378 11.1939 43.0923 10.9613 42.8333C10.7287 42.5742 10.5981 42.2229 10.5981 41.8567V8.70959C10.5981 8.3433 10.7287 7.992 10.9613 7.73299C11.1939 7.47398 11.5093 7.32847 11.8383 7.32847Z" fill="#789B3D"/>
</svg>
