<svg width="30" height="30" viewBox="0 0 30 30" fill="none" xmlns="http://www.w3.org/2000/svg">
<path d="M3.75 7.8125C3.75 6.73506 4.17801 5.70175 4.93988 4.93988C5.70175 4.17801 6.73506 3.75 7.8125 3.75H22.1875C23.2649 3.75 24.2983 4.17801 25.0601 4.93988C25.822 5.70175 26.25 6.73506 26.25 7.8125V15.0275C24.69 14.0298 22.8359 13.5949 20.9949 13.7948C19.1539 13.9948 17.4365 14.8176 16.1271 16.1271C14.8176 17.4365 13.9948 19.1539 13.7948 20.9949C13.5949 22.8359 14.0298 24.69 15.0275 26.25H7.8125C6.73506 26.25 5.70175 25.822 4.93988 25.0601C4.17801 24.2983 3.75 23.2649 3.75 22.1875V7.8125ZM15.625 11.5625C15.625 12.08 16.045 12.5 16.5625 12.5H20.9375C21.1861 12.5 21.4246 12.4012 21.6004 12.2254C21.7762 12.0496 21.875 11.8111 21.875 11.5625C21.875 11.3139 21.7762 11.0754 21.6004 10.8996C21.4246 10.7238 21.1861 10.625 20.9375 10.625H16.5625C16.3139 10.625 16.0754 10.7238 15.8996 10.8996C15.7238 11.0754 15.625 11.3139 15.625 11.5625ZM13.475 10.975C13.5671 10.8892 13.641 10.7857 13.6922 10.6707C13.7435 10.5557 13.771 10.4315 13.7732 10.3057C13.7755 10.1798 13.7523 10.0547 13.7052 9.938C13.658 9.82127 13.5878 9.71523 13.4988 9.6262C13.4098 9.53718 13.3037 9.467 13.187 9.41985C13.0703 9.3727 12.9452 9.34954 12.8193 9.35176C12.6935 9.35398 12.5693 9.38153 12.4543 9.43277C12.3393 9.48401 12.2358 9.55789 12.15 9.65L10.3125 11.4875L9.725 10.9C9.54728 10.7344 9.31222 10.6442 9.06935 10.6485C8.82647 10.6528 8.59474 10.7512 8.42297 10.923C8.25121 11.0947 8.15282 11.3265 8.14853 11.5693C8.14425 11.8122 8.2344 12.0473 8.4 12.225L9.65 13.475C9.82578 13.6506 10.0641 13.7492 10.3125 13.7492C10.5609 13.7492 10.7992 13.6506 10.975 13.475L13.475 10.975ZM13.475 16.525C13.2992 16.3494 13.0609 16.2508 12.8125 16.2508C12.5641 16.2508 12.3258 16.3494 12.15 16.525L10.3125 18.3625L9.725 17.775C9.54728 17.6094 9.31222 17.5192 9.06935 17.5235C8.82647 17.5278 8.59474 17.6262 8.42297 17.798C8.25121 17.9697 8.15282 18.2015 8.14853 18.4443C8.14425 18.6872 8.2344 18.9223 8.4 19.1L9.65 20.35C9.82578 20.5256 10.0641 20.6242 10.3125 20.6242C10.5609 20.6242 10.7992 20.5256 10.975 20.35L13.475 17.85C13.6506 17.6742 13.7492 17.4359 13.7492 17.1875C13.7492 16.9391 13.6506 16.7008 13.475 16.525ZM28.75 21.875C28.75 20.0516 28.0257 18.303 26.7364 17.0136C25.447 15.7243 23.6984 15 21.875 15C20.0516 15 18.303 15.7243 17.0136 17.0136C15.7243 18.303 15 20.0516 15 21.875C15 23.6984 15.7243 25.447 17.0136 26.7364C18.303 28.0257 20.0516 28.75 21.875 28.75C23.6984 28.75 25.447 28.0257 26.7364 26.7364C28.0257 25.447 28.75 23.6984 28.75 21.875ZM22.5 22.5L22.5012 25.6287C22.5012 25.7945 22.4354 25.9535 22.3182 26.0707C22.201 26.1879 22.042 26.2537 21.8762 26.2537C21.7105 26.2537 21.5515 26.1879 21.4343 26.0707C21.3171 25.9535 21.2512 25.7945 21.2512 25.6287V22.5H18.12C17.9542 22.5 17.7953 22.4342 17.6781 22.3169C17.5608 22.1997 17.495 22.0408 17.495 21.875C17.495 21.7092 17.5608 21.5503 17.6781 21.4331C17.7953 21.3158 17.9542 21.25 18.12 21.25H21.25V18.125C21.25 17.9592 21.3158 17.8003 21.4331 17.6831C21.5503 17.5658 21.7092 17.5 21.875 17.5C22.0408 17.5 22.1997 17.5658 22.3169 17.6831C22.4342 17.8003 22.5 17.9592 22.5 18.125V21.25H25.6213C25.787 21.25 25.946 21.3158 26.0632 21.4331C26.1804 21.5503 26.2463 21.7092 26.2463 21.875C26.2463 22.0408 26.1804 22.1997 26.0632 22.3169C25.946 22.4342 25.787 22.5 25.6213 22.5H22.5Z" fill="#F8F8F8"/>
</svg>
