<svg width="35" height="36" viewBox="0 0 35 36" fill="none" xmlns="http://www.w3.org/2000/svg">
<g clip-path="url(#clip0_998_67)">
<path d="M9.25085 30.4762L9.82301 30.759C12.2074 32.1729 14.8776 32.8328 17.548 32.8328C25.9405 32.8328 32.8071 26.0458 32.8071 17.7505C32.8071 13.7915 31.1857 9.92659 28.3248 7.09862C25.4636 4.27064 21.6488 2.66821 17.548 2.66821C9.15555 2.66821 2.28885 9.45524 2.38428 17.8448C2.38428 20.6727 3.2426 23.4065 4.67309 25.7629L5.05454 26.3286L3.52876 31.8902L9.25085 30.4762Z" fill="#00E676"/>
<path d="M29.9459 5.59027C26.7034 2.29108 22.221 0.5 17.6433 0.5C7.91574 0.5 0.0954297 8.32392 0.190723 17.8446C0.190723 20.8611 1.04904 23.7834 2.47967 26.4227L0 35.3778L9.2508 33.0212C11.8258 34.4353 14.6867 35.0951 17.548 35.0951C27.1802 35.0951 35.0005 27.2711 35.0005 17.7505C35.0005 13.1315 33.1885 8.79527 29.9461 5.59027H29.9459ZM17.6433 32.173C15.0683 32.173 12.4934 31.5132 10.2998 30.1935L9.72768 29.9107L4.19631 31.3246L5.6268 25.9516L5.24535 25.3859C1.04904 18.6932 3.05184 9.83216 9.9184 5.68446C16.785 1.53689 25.6543 3.51649 29.8506 10.3035C34.0468 17.0905 32.044 25.8572 25.1776 30.0049C22.9839 31.4188 20.3137 32.1728 17.6433 32.1728V32.173ZM26.0358 21.7097L24.9867 21.2384C24.9867 21.2384 23.4609 20.5785 22.5072 20.1072C22.4118 20.1072 22.3165 20.0128 22.221 20.0128C21.9349 20.0128 21.7442 20.1072 21.5534 20.2015C21.5534 20.2015 21.4581 20.2957 20.1229 21.8039C20.0275 21.9924 19.8368 22.0868 19.6461 22.0868H19.5506C19.4554 22.0868 19.2646 21.9924 19.1692 21.8982L18.6923 21.7097C17.6433 21.2384 16.6897 20.6727 15.9266 19.9186C15.7359 19.7301 15.4498 19.5416 15.259 19.3531C14.5914 18.6932 13.9238 17.9391 13.4471 17.0907L13.3517 16.9022C13.2564 16.8078 13.2564 16.7136 13.161 16.5251C13.161 16.3366 13.161 16.1481 13.2564 16.0538C13.2564 16.0538 13.6378 15.5824 13.9238 15.2997C14.1147 15.1111 14.21 14.8284 14.4007 14.6399C14.5914 14.357 14.6869 13.98 14.5914 13.6972C14.4962 13.2258 13.3517 10.6807 13.0657 10.1151C12.8748 9.8323 12.6842 9.73811 12.3981 9.64378H11.349C11.1582 9.64378 10.9676 9.73811 10.7767 9.73811L10.6813 9.8323C10.4906 9.92662 10.2998 10.1151 10.1091 10.2093C9.9184 10.398 9.82297 10.5864 9.63225 10.775C8.96465 11.6234 8.5832 12.6603 8.5832 13.6972C8.5832 14.4512 8.77393 15.2054 9.06008 15.8653L9.15551 16.1481C10.0138 17.9391 11.1582 19.5416 12.6842 20.9555L13.0657 21.3326C13.3517 21.6154 13.6378 21.8039 13.8286 22.0866C15.8313 23.7835 18.1202 25.0089 20.6951 25.6688C20.9813 25.763 21.3627 25.763 21.6489 25.8573H22.6025C23.0794 25.8573 23.6515 25.6688 24.0331 25.4803C24.3191 25.2918 24.5098 25.2918 24.7006 25.1032L24.8914 24.9146C25.0821 24.7261 25.2729 24.6319 25.4636 24.4434C25.6543 24.2549 25.845 24.0663 25.9405 23.8777C26.1312 23.5007 26.2265 23.0293 26.3219 22.5581V21.8982C26.3219 21.8982 26.2265 21.8039 26.0358 21.7097Z" fill="white"/>
</g>
<defs>
<clipPath id="clip0_998_67">
<rect width="35" height="35" fill="white" transform="translate(0 0.5)"/>
</clipPath>
</defs>
</svg>
