<svg width="46" height="46" viewBox="0 0 46 46" fill="none" xmlns="http://www.w3.org/2000/svg">
<path d="M23.2129 5.11108C21.3175 5.11108 19.4646 5.67314 17.8887 6.72617C16.3127 7.7792 15.0844 9.27591 14.359 11.027C13.6337 12.7782 13.4439 14.705 13.8137 16.564C14.1835 18.423 15.0962 20.1306 16.4365 21.4709C17.7767 22.8111 19.4843 23.7238 21.3433 24.0936C23.2023 24.4634 25.1291 24.2736 26.8803 23.5483C28.6314 22.8229 30.1281 21.5946 31.1811 20.0186C32.2342 18.4427 32.7962 16.5898 32.7962 14.6944C32.7962 12.1528 31.7866 9.7152 29.9893 7.91798C28.1921 6.12075 25.7545 5.11108 23.2129 5.11108ZM23.2129 20.4444C22.0756 20.4444 20.9639 20.1072 20.0184 19.4754C19.0728 18.8435 18.3358 17.9455 17.9006 16.8948C17.4654 15.8442 17.3515 14.688 17.5734 13.5726C17.7952 12.4573 18.3429 11.4327 19.147 10.6286C19.9512 9.8244 20.9757 9.27677 22.0911 9.0549C23.2065 8.83304 24.3626 8.94691 25.4133 9.38211C26.464 9.81731 27.362 10.5543 27.9938 11.4999C28.6257 12.4455 28.9629 13.5572 28.9629 14.6944C28.9629 16.2194 28.3571 17.6819 27.2788 18.7603C26.2004 19.8386 24.7379 20.4444 23.2129 20.4444ZM40.4629 41.5278V39.6111C40.4629 36.0528 39.0494 32.6402 36.5332 30.1241C34.0171 27.608 30.6045 26.1944 27.0462 26.1944H19.3796C15.8212 26.1944 12.4087 27.608 9.89254 30.1241C7.37643 32.6402 5.96289 36.0528 5.96289 39.6111V41.5278H9.79622V39.6111C9.79622 37.0694 10.8059 34.6319 12.6031 32.8346C14.4003 31.0374 16.8379 30.0278 19.3796 30.0278H27.0462C29.5879 30.0278 32.0254 31.0374 33.8227 32.8346C35.6199 34.6319 36.6296 37.0694 36.6296 39.6111V41.5278H40.4629Z" fill="#789B3D"/>
</svg>
