<svg width="50" height="50" viewBox="0 0 50 50" fill="none" xmlns="http://www.w3.org/2000/svg">
<path d="M11.0052 38.7511L18.4191 30.5272C18.6652 30.2605 18.8801 29.9666 19.0596 29.6513L20.3068 27.6271C25.4952 31.3844 32.5981 31.0496 37.4102 26.8209C42.2223 22.5922 43.4594 15.5981 40.3891 9.97947C37.3188 4.36081 30.7605 1.61704 24.5969 3.37255C18.4334 5.12806 14.3095 10.9143 14.6667 17.3057C14.8284 20.408 16.0414 23.363 18.1065 25.6856L16.2275 27.2533C15.9847 27.4402 15.7593 27.6487 15.5541 27.8762L8.14023 36.1001C7.9647 36.2932 7.87366 36.5484 7.88731 36.8088C7.90095 37.0692 8.01817 37.3134 8.21291 37.4871L9.65367 38.7828C10.0403 39.1344 10.6354 39.1205 11.0052 38.7511ZM18.5784 17.1007C18.2957 11.7063 22.4448 7.10386 27.8457 6.82081C33.2466 6.53776 37.8541 10.6813 38.1368 16.0757C38.4195 21.4701 34.2704 26.0726 28.8695 26.3557C26.2759 26.4916 23.7345 25.5929 21.8046 23.8572C19.8746 22.1216 18.7141 19.6912 18.5784 17.1007Z" fill="#789B3D"/>
</svg>
