<svg width="822" height="411" viewBox="0 0 822 411" fill="none" xmlns="http://www.w3.org/2000/svg">
<path opacity="0.31" d="M791.386 374.684C789.785 374.7 779.929 364.427 778.041 363.004C762.606 351.357 753.345 338.561 746.386 324.64C741.081 314.027 737.124 302.753 732.807 290.858C729.89 282.834 725.19 273.868 715.006 271.337C705.098 268.88 694.426 273.975 688.336 280.543C682.237 287.111 679.171 295.077 673.962 302.091C664.51 314.805 647.781 320.132 633.947 308.957C614.194 292.992 605.294 271.221 592.765 251.749C583.674 237.613 576.057 221.061 564.6 208.025C547.128 188.157 523.164 171.208 491.307 171.208C471.108 173.59 453.318 187.544 441.267 204.973C429.226 222.401 422.193 243.139 416.21 263.818C411.192 281.164 406.789 298.7 402.716 316.327C395.141 295.085 387.259 274 378.73 253.28C369.49 230.839 359.285 208.48 345.112 190.522C330.939 172.564 312.173 159.321 293.333 159.412C264.297 163.796 245.563 186.146 233.278 210.912C225.227 227.149 221.323 246.819 215.615 263.975C207.765 287.607 203.649 313.316 188.564 334.003C178.009 348.479 161.778 344.79 150.841 331.778C144.804 324.598 140.55 316.062 133.793 309.511C127.035 302.96 116.374 298.691 107.802 302.819C98.9867 307.062 96.3452 317.807 95.1571 327.229C93.3961 341.216 91.8579 354.434 88.9618 367.107C88.3359 369.869 87.6357 372.599 86.8613 375.304H390.007C389.795 376.313 389.583 377.33 389.381 378.34C389.381 378.34 791.386 374.684 791.386 374.684Z" fill="#DCE6EF"/>
<path opacity="0.77" d="M670.088 342.556C669.303 354.74 652.298 376.04 636.672 375.428C621.046 374.816 612.708 352.515 613.503 340.331C614.288 328.147 630.933 267.168 646.559 267.788C662.175 268.4 670.873 330.372 670.088 342.556Z" fill="#4F4F4F"/>
<path d="M637.926 374.774C637.916 374.774 637.905 374.774 637.905 374.774C637.682 374.766 637.502 374.609 637.523 374.435L645.405 275.688C645.416 275.514 645.596 275.365 645.84 275.39C646.063 275.398 646.243 275.555 646.222 275.729L638.34 374.477C638.319 374.642 638.138 374.774 637.926 374.774Z" fill="#4F4F4F"/>
<path opacity="0.77" d="M634.319 340.017C630.765 346.113 628.05 352.507 626.416 359.174C625.589 362.549 625.058 366.213 627.021 369.298C629.164 372.665 633.916 374.625 638.669 375.238C650.285 376.726 661.901 371.176 668.712 363.69C675.522 356.204 678.471 347.048 681.177 338.122C683.309 331.092 685.399 323.953 689.419 317.402C691.138 314.59 701.227 303.745 696.453 300.933C689.929 296.938 671.046 301.28 658.952 311.587C648.98 320.057 640.408 329.594 634.319 340.017Z" fill="#4F4F4F"/>
<path d="M638.669 375.552C638.637 375.552 638.605 375.552 638.563 375.544C638.34 375.502 638.213 375.32 638.266 375.155C638.404 374.725 652.715 332.217 686.269 308.014C686.439 307.898 686.693 307.898 686.852 308.03C687.011 308.163 687.001 308.361 686.831 308.485C653.447 332.556 639.21 374.89 639.072 375.312C639.03 375.461 638.86 375.552 638.669 375.552Z" fill="#4F4F4F"/>
<path opacity="0.77" d="M716.46 329.983C715.261 331.662 713.012 332.804 710.965 333.697C708.451 334.806 705.767 335.773 703.168 336.716C699.837 337.924 696.4 339.173 693.217 340.728C690.904 341.861 688.846 343.143 687.117 344.517C689.844 339.686 693.037 335.467 696.792 331.695C701.736 326.732 706.806 324.218 711.888 324.218C712.004 324.218 712.121 324.218 712.238 324.226C713.808 324.259 715.028 324.565 715.866 325.128C717.595 326.277 717.521 328.494 716.46 329.983Z" fill="#4F4F4F"/>
<path opacity="0.77" d="M722.125 357.503C720.12 358.62 717.457 358.901 715.123 359.033C712.238 359.19 709.278 359.174 706.424 359.166C702.754 359.149 698.956 359.124 695.232 359.472C692.517 359.728 689.949 360.2 687.637 360.861C692.75 357.404 697.948 354.649 703.411 352.499C710.604 349.662 716.566 349.083 721.159 350.778C721.265 350.82 721.371 350.861 721.477 350.902C722.878 351.456 723.811 352.135 724.268 352.929C725.18 354.534 723.896 356.519 722.125 357.503Z" fill="#4F4F4F"/>
<path opacity="0.77" d="M708.757 371.052C707.092 370.87 705.596 370.043 704.355 369.249C702.827 368.273 701.363 367.189 699.952 366.13C698.138 364.782 696.261 363.384 694.203 362.193C692.696 361.325 691.137 360.622 689.588 360.109C694.213 360.258 698.446 360.787 702.466 361.713C707.749 362.929 711.059 364.824 712.322 367.338C712.353 367.396 712.375 367.454 712.406 367.512C712.767 368.298 712.82 368.976 712.576 369.538C712.067 370.688 710.232 371.209 708.757 371.052Z" fill="#4F4F4F"/>
<path d="M670.734 375.8C670.522 375.784 670.32 375.659 670.32 375.477C670.32 375.213 670.946 349.008 711.449 327.047C711.64 326.947 711.895 326.98 712.022 327.129C712.149 327.278 712.107 327.477 711.916 327.576C671.763 349.347 671.137 375.221 671.137 375.477C671.148 375.651 670.967 375.8 670.734 375.8Z" fill="#4F4F4F"/>
<path d="M670.737 375.8C670.674 375.8 670.621 375.792 670.557 375.767C670.345 375.693 670.26 375.503 670.355 375.337C670.483 375.13 683.383 354.228 717.213 354.228C717.446 354.228 717.626 354.368 717.626 354.55C717.626 354.732 717.446 354.873 717.213 354.873C683.924 354.873 671.225 375.403 671.109 375.61C671.045 375.726 670.896 375.8 670.737 375.8Z" fill="#4F4F4F"/>
<path d="M709.523 368.397C709.439 368.397 709.354 368.372 709.279 368.331C695.892 360.456 689.304 360.688 689.251 360.696C689.017 360.713 688.826 360.572 688.805 360.398C688.795 360.225 688.964 360.067 689.187 360.051C689.463 360.026 696.072 359.761 709.778 367.818C709.958 367.925 710.001 368.124 709.863 368.273C709.778 368.347 709.651 368.397 709.523 368.397Z" fill="#4F4F4F"/>
<path d="M191.321 337.337C185.434 332.035 177.976 327.469 175.621 320.777C173.902 315.888 175.26 310.718 175.928 305.681C176.597 300.643 176.363 295.068 172.184 291.197C168.736 288.004 163.294 286.615 158.064 285.738C152.834 284.861 147.371 284.307 142.724 282.231C135.182 278.856 136.688 273.123 132.636 268.094C128.095 262.453 117.519 255.248 108.459 258.995C98.869 262.966 100.386 275.018 106.762 280.336C110.994 283.868 116.415 287.251 117.041 292.066C117.975 299.303 107.345 305.821 110.262 312.737C112.427 317.84 120.669 319.594 124.754 323.928C128.785 328.221 127.968 334.226 125.602 339.214C123.226 344.202 119.492 348.809 118.017 353.996C114.994 364.617 125.687 371.954 137.866 374.328C149.057 376.503 173.192 375.477 173.192 375.477C181.806 373.128 191.353 367.231 196.095 360.779C199.67 355.907 200.169 349.736 197.4 344.55C195.968 341.886 193.782 339.545 191.321 337.337Z" fill="#4F4F4F"/>
<path d="M164.885 375.527C164.673 375.527 164.482 375.395 164.471 375.221C160.047 320.818 119.258 271.122 118.844 270.625C118.717 270.476 118.77 270.278 118.972 270.179C119.163 270.079 119.417 270.121 119.544 270.278C119.958 270.774 160.864 320.62 165.309 375.18C165.32 375.353 165.15 375.511 164.927 375.519C164.906 375.527 164.895 375.527 164.885 375.527Z" fill="#4F4F4F"/>
<path d="M82.4891 337.403C83.1256 336.981 84.0486 336.749 85.2367 336.725C85.3216 336.725 85.417 336.725 85.5019 336.725C89.3315 336.725 93.1718 338.627 96.9166 342.374C99.7596 345.228 102.168 348.421 104.226 352.069C102.921 351.026 101.361 350.059 99.6111 349.207C97.2136 348.032 94.6039 347.089 92.0897 346.171C90.1272 345.46 88.101 344.723 86.2021 343.888C84.6532 343.21 82.9559 342.341 82.0436 341.076C81.2373 339.951 81.1843 338.271 82.4891 337.403Z" fill="#4F4F4F"/>
<path d="M76.1464 358.421C76.4859 357.826 77.1966 357.313 78.2575 356.891C78.3317 356.858 78.4166 356.833 78.4908 356.8C81.9598 355.518 86.4683 355.956 91.9104 358.099C96.0477 359.728 99.9728 361.813 103.845 364.427C102.094 363.922 100.153 363.566 98.1057 363.376C95.2839 363.111 92.4196 363.128 89.6402 363.144C87.4761 363.153 85.2378 363.169 83.0631 363.045C81.2915 362.946 79.2865 362.731 77.7695 361.887C76.4116 361.143 75.4462 359.637 76.1464 358.421Z" fill="#4F4F4F"/>
<path d="M84.9726 370.994C84.7817 370.573 84.8241 370.06 85.0999 369.464C85.1212 369.423 85.1424 369.373 85.1636 369.332C86.1183 367.429 88.6219 365.998 92.6213 365.08C95.6553 364.377 98.8591 363.98 102.36 363.864C101.182 364.253 100.005 364.782 98.8697 365.444C97.3102 366.346 95.8887 367.396 94.5202 368.422C93.4488 369.216 92.3455 370.043 91.1892 370.779C90.2556 371.375 89.1205 372.004 87.8581 372.144C86.7443 372.252 85.3652 371.855 84.9726 370.994Z" fill="#4F4F4F"/>
<path d="M116.606 375.8C116.383 375.8 116.192 375.66 116.192 375.478C116.192 375.279 115.693 355.741 85.4064 339.322C85.2154 339.223 85.173 339.016 85.3003 338.875C85.4276 338.726 85.6928 338.693 85.8732 338.792C116.542 355.419 117.019 375.279 117.019 375.478C117.03 375.651 116.839 375.8 116.606 375.8C116.616 375.8 116.616 375.8 116.606 375.8Z" fill="#4F4F4F"/>
<path d="M116.619 375.8C116.46 375.8 116.311 375.734 116.248 375.618C116.152 375.461 106.573 359.985 81.4733 359.985C81.2399 359.985 81.0596 359.844 81.0596 359.662C81.0596 359.48 81.2399 359.339 81.4733 359.339C107.114 359.339 116.895 375.188 116.99 375.345C117.086 375.511 117.001 375.701 116.789 375.775C116.736 375.784 116.672 375.8 116.619 375.8Z" fill="#4F4F4F"/>
<path d="M87.2847 370.2C87.1574 370.2 87.0407 370.159 86.9559 370.068C86.8179 369.927 86.8498 369.72 87.0407 369.613C97.4263 363.5 102.465 363.715 102.677 363.724C102.9 363.74 103.081 363.889 103.059 364.071C103.038 364.245 102.847 364.394 102.614 364.369C102.561 364.369 97.6173 364.203 87.5393 370.126C87.4545 370.184 87.3696 370.2 87.2847 370.2Z" fill="#4F4F4F"/>
<path d="M525.921 362.152H235.06C228.652 362.152 223.443 358.09 223.443 353.094V47.8684C223.443 42.8723 228.652 38.8109 235.06 38.8109H321.995V41.2924H235.06C230.413 41.2924 226.626 44.2454 226.626 47.8684V353.094C226.626 356.717 230.413 359.67 235.06 359.67H525.921C530.567 359.67 534.354 356.717 534.354 353.094V47.8684C534.354 44.2454 530.567 41.2924 525.921 41.2924H439.006V38.8109H525.921C532.328 38.8109 537.537 42.8723 537.537 47.8684V353.094C537.537 358.082 532.328 362.152 525.921 362.152Z" fill="#4F4F4F"/>
<path d="M513.787 346.105H247.197C244.938 346.105 243.103 344.674 243.103 342.912V58.0509C243.103 56.289 244.938 54.858 247.197 54.858H513.787C516.046 54.858 517.881 56.289 517.881 58.0509V342.912C517.881 344.674 516.046 346.105 513.787 346.105Z" fill="#F2F2F2"/>
<path d="M440.385 63.3117H320.595V32.7478H355.274C355.507 22.0607 366.731 13.4168 380.49 13.4168C394.249 13.4168 405.473 22.0607 405.706 32.7478H440.385V63.3117V63.3117ZM323.777 60.8302H437.202V35.2293H402.386L402.492 33.5915C402.502 33.426 402.523 33.2523 402.523 33.0786C402.523 23.6075 392.636 15.8983 380.49 15.8983C368.343 15.8983 358.456 23.6075 358.456 33.0786C358.456 33.2523 358.477 33.426 358.488 33.5915L358.594 35.2293H323.777V60.8302Z" fill="#4F4F4F"/>
<path d="M380.491 44.6672C372.302 44.6672 365.629 39.4725 365.629 33.0785C365.629 26.6845 372.291 21.4898 380.491 21.4898C388.692 21.4898 395.354 26.6845 395.354 33.0785C395.354 39.4725 388.681 44.6672 380.491 44.6672ZM380.491 23.9796C374.052 23.9796 368.811 28.0658 368.811 33.0868C368.811 38.1077 374.052 42.1939 380.491 42.1939C386.931 42.1939 392.171 38.1077 392.171 33.0868C392.171 28.0658 386.931 23.9796 380.491 23.9796Z" fill="#4F4F4F"/>
<path d="M798.813 410.045H22.2776C9.9719 410.045 0 402.27 0 392.675C0 383.079 9.9719 375.304 22.2776 375.304H798.813C811.118 375.304 821.09 383.079 821.09 392.675C821.09 402.27 811.118 410.045 798.813 410.045Z" fill="#D3D3D3"/>
<path d="M323.641 135.714H277.738V99.9222H323.641V135.714ZM278.799 134.887H322.58V100.749H278.799V134.887Z" fill="#4F4F4F"/>
<path d="M302.2 127.823L287.03 118.534L289.651 115.936L301.914 123.439L328.467 103.496L331.405 105.878L302.2 127.823Z" fill="#4F4F4F"/>
<path d="M490.744 110.262H344.634C343.68 110.262 342.905 109.658 342.905 108.914C342.905 108.169 343.68 107.565 344.634 107.565H490.744C491.699 107.565 492.473 108.169 492.473 108.914C492.473 109.658 491.699 110.262 490.744 110.262Z" fill="#4F4F4F"/>
<path d="M490.744 116.201H344.634C343.68 116.201 342.905 115.597 342.905 114.853C342.905 114.108 343.68 113.504 344.634 113.504H490.744C491.699 113.504 492.473 114.108 492.473 114.853C492.473 115.597 491.699 116.201 490.744 116.201Z" fill="#4F4F4F"/>
<path d="M490.744 122.132H344.634C343.68 122.132 342.905 121.528 342.905 120.783C342.905 120.039 343.68 119.435 344.634 119.435H490.744C491.699 119.435 492.473 120.039 492.473 120.783C492.473 121.528 491.699 122.132 490.744 122.132Z" fill="#4F4F4F"/>
<path d="M490.744 128.071H344.634C343.68 128.071 342.905 127.467 342.905 126.723C342.905 125.978 343.68 125.374 344.634 125.374H490.744C491.699 125.374 492.473 125.978 492.473 126.723C492.473 127.467 491.699 128.071 490.744 128.071Z" fill="#4F4F4F"/>
<path d="M323.641 192.003H277.738V156.211H323.641V192.003ZM278.799 191.176H322.58V157.038H278.799V191.176Z" fill="#4F4F4F"/>
<path d="M302.2 184.112L287.03 174.823L289.651 172.225L301.914 179.728L328.467 159.785L331.405 162.167L302.2 184.112Z" fill="#4F4F4F"/>
<path d="M490.744 166.551H344.634C343.68 166.551 342.905 165.947 342.905 165.202C342.905 164.458 343.68 163.854 344.634 163.854H490.744C491.699 163.854 492.473 164.458 492.473 165.202C492.473 165.947 491.699 166.551 490.744 166.551Z" fill="#4F4F4F"/>
<path d="M490.744 172.49H344.634C343.68 172.49 342.905 171.886 342.905 171.142C342.905 170.397 343.68 169.793 344.634 169.793H490.744C491.699 169.793 492.473 170.397 492.473 171.142C492.473 171.886 491.699 172.49 490.744 172.49Z" fill="#4F4F4F"/>
<path d="M490.744 178.421H344.634C343.68 178.421 342.905 177.817 342.905 177.072C342.905 176.328 343.68 175.724 344.634 175.724H490.744C491.699 175.724 492.473 176.328 492.473 177.072C492.473 177.817 491.699 178.421 490.744 178.421Z" fill="#4F4F4F"/>
<path d="M490.744 184.36H344.634C343.68 184.36 342.905 183.756 342.905 183.011C342.905 182.267 343.68 181.663 344.634 181.663H490.744C491.699 181.663 492.473 182.267 492.473 183.011C492.473 183.756 491.699 184.36 490.744 184.36Z" fill="#4F4F4F"/>
<path d="M323.641 248.292H277.738V212.5H323.641V248.292ZM278.799 247.465H322.58V213.327H278.799V247.465Z" fill="#4F4F4F"/>
<path d="M302.2 240.401L287.03 231.111L289.651 228.514L301.914 236.017L328.467 216.074L331.405 218.456L302.2 240.401Z" fill="#4F4F4F"/>
<path d="M490.744 222.84H344.634C343.68 222.84 342.905 222.236 342.905 221.491C342.905 220.747 343.68 220.143 344.634 220.143H490.744C491.699 220.143 492.473 220.747 492.473 221.491C492.473 222.236 491.699 222.84 490.744 222.84Z" fill="#4F4F4F"/>
<path d="M490.744 228.779H344.634C343.68 228.779 342.905 228.175 342.905 227.431C342.905 226.686 343.68 226.082 344.634 226.082H490.744C491.699 226.082 492.473 226.686 492.473 227.431C492.473 228.175 491.699 228.779 490.744 228.779Z" fill="#4F4F4F"/>
<path d="M490.744 234.71H344.634C343.68 234.71 342.905 234.106 342.905 233.361C342.905 232.617 343.68 232.013 344.634 232.013H490.744C491.699 232.013 492.473 232.617 492.473 233.361C492.473 234.106 491.699 234.71 490.744 234.71Z" fill="#4F4F4F"/>
<path d="M490.744 240.649H344.634C343.68 240.649 342.905 240.045 342.905 239.301C342.905 238.556 343.68 237.952 344.634 237.952H490.744C491.699 237.952 492.473 238.556 492.473 239.301C492.473 240.045 491.699 240.649 490.744 240.649Z" fill="#4F4F4F"/>
<path d="M323.641 304.581H277.738V268.789H323.641V304.581ZM278.799 303.753H322.58V269.616H278.799V303.753Z" fill="#4F4F4F"/>
<path d="M302.2 296.69L287.03 287.4L289.651 284.803L301.914 292.306L328.467 272.362L331.405 274.745L302.2 296.69Z" fill="#4F4F4F"/>
<path d="M490.744 279.129H344.634C343.68 279.129 342.905 278.525 342.905 277.78C342.905 277.036 343.68 276.432 344.634 276.432H490.744C491.699 276.432 492.473 277.036 492.473 277.78C492.473 278.525 491.699 279.129 490.744 279.129Z" fill="#4F4F4F"/>
<path d="M490.744 285.068H344.634C343.68 285.068 342.905 284.464 342.905 283.72C342.905 282.975 343.68 282.371 344.634 282.371H490.744C491.699 282.371 492.473 282.975 492.473 283.72C492.473 284.464 491.699 285.068 490.744 285.068Z" fill="#4F4F4F"/>
<path d="M490.744 290.999H344.634C343.68 290.999 342.905 290.395 342.905 289.65C342.905 288.906 343.68 288.302 344.634 288.302H490.744C491.699 288.302 492.473 288.906 492.473 289.65C492.473 290.395 491.699 290.999 490.744 290.999Z" fill="#4F4F4F"/>
<path d="M490.744 296.938H344.634C343.68 296.938 342.905 296.334 342.905 295.589C342.905 294.845 343.68 294.241 344.634 294.241H490.744C491.699 294.241 492.473 294.845 492.473 295.589C492.473 296.334 491.699 296.938 490.744 296.938Z" fill="#4F4F4F"/>
<path d="M498.142 239.201C500.518 237.886 502.704 236.364 503.711 235.917C504.136 235.735 505.451 235.504 505.823 235.413C506.926 235.156 508.687 234.892 509.451 234.222L512.718 231.426C514.267 230.053 516.293 229.598 518.043 230.806C519.942 232.113 519.38 233.974 517.492 235.297L515.253 237.282C513.747 238.341 512.994 239.83 512.156 241.269C510.458 244.206 506.608 246.414 503.319 247.961C501.25 248.929 498.121 248.242 494.015 247.15C492 246.613 489.083 245.314 491.597 244.578C493.708 243.966 500.052 245.298 502.852 240.74C502.99 240.517 503.287 239.921 503.001 239.714C502.152 239.094 500.274 240.5 499.023 240.947C497.262 241.575 495.851 241.36 495.416 240.856C494.949 240.326 496.445 240.144 498.142 239.201Z" fill="#FAB9AF"/>
<path d="M587.424 139.205C587.424 139.205 582.184 188.256 563.375 204.807C552.045 214.783 524.326 231.889 517.907 235.81C517.091 236.306 515.945 236.331 515.096 235.868C514.555 235.57 513.94 235.206 513.409 234.842C512.868 234.47 512.243 233.932 511.68 233.419C510.747 232.567 510.789 231.302 511.765 230.483C518.958 224.387 547.176 200.225 550.613 193.872C554.549 186.585 561.328 143.564 567.555 137.335C573.782 131.09 585.716 129.742 587.424 139.205Z" fill="#4F4F4F"/>
<path d="M563.672 220.234L579.712 132.389L622.962 127.757L645.463 219.606L563.672 220.234Z" fill="#FAB9AF"/>
<path d="M597.107 356.362L597.064 366.263C597.054 368.281 597.404 370.283 598.104 372.219L599.207 375.271C600.109 377.777 597.701 380.259 594.359 380.25C585.713 380.226 570.925 380.242 567.117 380.25C566.491 380.25 565.886 379.92 565.833 379.44C565.515 376.553 576.219 374.609 584.292 372.177C590.434 370.324 590.105 361.713 589.352 356.684C589.065 354.782 591.102 353.169 593.542 353.326C595.558 353.458 597.117 354.782 597.107 356.362Z" fill="#FAB9AF"/>
<path d="M656.556 353.582L660.927 364.906C661.118 365.411 661.404 365.882 661.786 366.312L664.884 369.902C666.857 372.185 665.435 375.296 662.062 376.098C662.062 376.098 655.803 377.81 649.364 379.465C642.765 381.152 634.459 379.746 634.459 378.381C634.459 375.362 638.066 377.761 644.113 374.609C646.139 373.55 648.229 372.45 650.096 371.309C655.294 368.124 650.753 360.067 647.571 355.526C646.425 353.897 647.645 351.87 649.979 351.481L651.485 351.233C653.692 350.878 655.898 351.895 656.556 353.582Z" fill="#FAB9AF"/>
<path d="M611.865 221.086L563.926 217.951C563.926 217.951 559.099 245.157 571.214 294.398C576.9 317.493 588.739 361.623 588.739 361.623C591.677 362.623 594.658 362.872 597.692 362.284C597.692 362.284 598.594 342.821 599.146 321.852C599.676 301.752 599.814 280.27 601.458 273.239C604.811 258.88 611.865 221.086 611.865 221.086Z" fill="#4F4F4F"/>
<path d="M601.966 221.558C597.012 242.27 585.958 273.239 607.26 302.331C628.551 331.422 650.924 361.672 650.924 361.672C653.81 361.763 656.419 360.952 658.849 359.513C658.849 359.513 655.114 346.328 649.715 330.926C643.541 313.307 635.722 292.587 637.95 281.784C642.13 261.535 646.925 234.569 645.471 221.467C644.007 208.364 604.565 210.672 601.966 221.558Z" fill="#4F4F4F"/>
<path d="M562.016 218.001L579.71 132.389L622.972 127.757L646.215 218.158C646.65 219.854 645.239 221.508 643.053 221.831C635.001 223.022 615.577 225.503 593.83 225.503C577.599 225.503 568.476 223.047 564.328 221.483C562.652 220.855 561.719 219.44 562.016 218.001Z" fill="#F2F2F2"/>
<path d="M647.636 251.137C648.294 248.929 648.655 246.654 649.026 245.802C649.185 245.446 649.981 244.594 650.182 244.33C650.798 243.569 651.89 242.46 651.89 241.567L651.975 237.787C651.975 235.959 653.11 234.577 655.444 234.577C657.979 234.577 659.136 236.265 658.839 238.233V240.88C658.605 242.452 659.306 243.957 659.9 245.471C661.109 248.548 660.101 252.188 658.945 255.05C658.224 256.845 655.285 257.945 651.286 259.235C649.323 259.872 646.024 260.402 647.286 258.557C648.347 257.01 654.235 254.744 652.474 249.872C652.389 249.632 652.113 249.028 651.721 249.02C650.554 248.995 650.341 251.013 649.779 251.998C648.994 253.379 647.753 253.941 646.989 253.793C646.194 253.627 647.159 252.717 647.636 251.137Z" fill="#FAB9AF"/>
<path d="M609.455 133.092C609.455 139.263 610.898 145.367 613.592 151.166C618.875 162.506 626.81 183.946 622.09 202.839C615.311 230.045 606.58 241.038 617.889 247.382C629.197 253.718 650.881 243.147 651.507 239.615C652.133 236.091 647.285 192.772 641.8 174.004C636.305 155.235 620.923 128.253 620.923 128.253L614.409 128.799C611.587 129.03 609.455 130.883 609.455 133.092Z" fill="#4F4F4F"/>
<path d="M629.781 130.089C629.781 130.089 667.462 169.587 667.388 191.697C667.346 205.023 661.065 232.145 659.58 238.399C659.389 239.193 658.562 239.805 657.522 239.888C656.864 239.946 656.09 239.987 655.39 239.987C654.679 239.987 653.746 239.904 652.886 239.813C651.465 239.656 650.425 238.688 650.457 237.563C650.68 229.283 651.359 196.61 648.537 190.067C645.301 182.565 613.9 146.815 613.285 138.923C612.659 131.04 620.478 123.869 629.781 130.089Z" fill="#4F4F4F"/>
<path d="M591.443 131.131C591.443 131.131 583.943 143.771 586.552 161.935C589.173 180.1 595.23 235.413 574.034 243.767C567.319 246.414 551.99 234.701 551.99 230.351C551.99 226 557.103 211.458 561.951 198.231C566.8 185.005 578.479 132.513 578.479 132.513L591.443 131.131Z" fill="#4F4F4F"/>
<path d="M597.48 91.9483C607.134 91.9483 610.741 97.3084 610.921 107.218C610.996 110.932 608.853 114.605 607.123 116.954C605.84 118.699 605.49 120.767 606.222 122.694L608.343 128.286C609.786 133.472 606.625 136.326 601.957 137.36C599.645 137.873 596.876 137.476 594.86 136.458C592.463 135.251 592.261 132.645 592.707 130.445L593.258 128.848C594.001 126.698 592.399 124.382 589.609 123.91C582.172 122.645 581.112 116.598 579.117 107.218C577.038 97.4407 587.827 91.9483 597.48 91.9483Z" fill="#FAB9AF"/>
<path d="M575.001 87.5974L580.538 88.9126C582.575 89.3924 584.739 89.4089 586.787 88.9457L597.841 86.4477C604.535 86.4477 615.599 89.3924 614.199 96.9279L612.968 102.255C612.48 104.381 610.199 105.977 607.431 106.159C607.176 106.895 606.317 107.408 605.341 107.408C604.142 107.408 603.177 106.655 603.177 105.721C603.177 103.314 601.013 101.271 598.01 100.741C594.319 100.096 590.383 99.9388 586.256 100.807C578.576 102.42 570.471 98.7063 569.707 92.5274C569.654 92.1386 569.633 91.7415 569.633 91.3362C569.622 88.8382 572.264 87.0101 575.001 87.5974Z" fill="#4F4F4F"/>
<path d="M605.605 107.4C605.605 109.699 606.698 111.561 609.541 111.561C612.384 111.561 614.198 108.401 614.198 106.101C614.198 103.802 612.374 103.239 609.541 103.239C606.698 103.239 605.605 105.109 605.605 107.4Z" fill="#FAB9AF"/>
<path d="M606.77 117.491C606.77 117.491 599.556 125.217 590.592 124.175C590.592 124.175 592.459 124.87 592.904 125.995C592.904 125.995 601.423 125.507 606.77 117.491Z" fill="#E8948B"/>
<path d="M625.895 9.7606C625.895 15.1289 621.354 19.4881 615.742 19.4881H495.369C489.768 19.4881 485.217 15.1372 485.217 9.7606C485.217 4.39226 489.757 0.0330658 495.369 0.0330658H615.742C621.354 0.0413375 625.895 4.39226 625.895 9.7606Z" fill="#F2F2F2"/>
<path d="M195.014 61.8393C195.014 67.2076 189.434 71.5668 182.539 71.5668H34.6366C27.7518 71.5668 22.1611 67.2159 22.1611 61.8393C22.1611 56.4709 27.7411 52.1118 34.6366 52.1118H182.549C189.434 52.1118 195.014 56.4627 195.014 61.8393Z" fill="#F2F2F2"/>
<path d="M255.481 9.72757C255.481 15.0959 250.856 19.4551 245.159 19.4551H122.77C117.074 19.4551 112.448 15.1042 112.448 9.72757C112.448 4.35921 117.074 3.05176e-05 122.77 3.05176e-05H245.159C250.856 3.05176e-05 255.481 4.35094 255.481 9.72757Z" fill="#F2F2F2"/>
<path d="M757.672 51.8801C757.672 57.2484 752.092 61.6076 745.196 61.6076H597.294C590.409 61.6076 584.818 57.2567 584.818 51.8801C584.818 46.5117 590.398 42.1525 597.294 42.1525H745.207C752.092 42.1608 757.672 46.5117 757.672 51.8801Z" fill="#F2F2F2"/>
</svg>
